<?xml version="1.0" standalone="no"?>
<!DOCTYPE svg PUBLIC "-//W3C//DTD SVG 20010904//EN"
 "http://www.w3.org/TR/2001/REC-SVG-20010904/DTD/svg10.dtd">
<svg version="1.0" xmlns="http://www.w3.org/2000/svg"
 width="1293.000000pt" height="1293.000000pt" viewBox="0 0 1293.000000 1293.000000"
 preserveAspectRatio="xMidYMid meet">
<metadata>
Created by potrace 1.14, written by Peter Selinger 2001-2017
</metadata>
<g transform="translate(0.000000,1293.000000) scale(0.100000,-0.100000)"
fill="#000000" stroke="none">
<path d="M2 10865 l3 -1226 93 -50 c52 -28 146 -79 210 -115 64 -35 165 -89
224 -121 59 -31 104 -61 101 -66 -3 -6 -2 -7 4 -4 14 9 210 -93 225 -117 4 -6
8 -7 8 -3 0 7 57 -20 70 -33 3 -3 41 -24 85 -47 175 -91 230 -123 228 -132 -2
-6 3 -8 10 -5 8 3 42 -11 76 -31 35 -19 67 -35 72 -35 5 0 9 -4 9 -8 0 -5 16
-14 35 -22 19 -8 35 -18 35 -22 0 -5 4 -7 9 -4 5 4 11 3 13 -1 3 -7 50 -33
183 -101 28 -14 52 -28 55 -31 3 -3 35 -21 72 -40 37 -19 65 -38 61 -44 -3 -6
-1 -7 5 -3 12 7 62 -13 62 -26 0 -4 3 -7 8 -6 7 2 37 -12 132 -65 30 -17 65
-36 77 -42 13 -7 19 -16 15 -20 -4 -5 -2 -5 4 -2 14 8 157 -67 147 -77 -5 -4
-3 -6 2 -5 19 5 55 -12 49 -23 -4 -7 -2 -8 4 -4 10 6 46 -8 62 -24 3 -3 44
-25 93 -49 48 -25 87 -49 87 -53 0 -5 4 -6 10 -3 5 3 10 1 10 -4 0 -6 4 -10 8
-8 14 4 152 -75 146 -84 -3 -5 2 -6 11 -3 8 4 22 1 30 -6 8 -7 38 -24 67 -39
54 -29 169 -90 210 -113 13 -7 26 -17 30 -23 4 -5 8 -7 8 -2 0 4 17 -3 38 -16
20 -13 54 -31 75 -41 20 -9 37 -22 37 -28 0 -6 3 -9 6 -5 9 9 105 -43 99 -53
-3 -5 0 -12 6 -16 8 -4 9 -3 5 4 -4 7 -4 12 0 12 11 0 119 -63 126 -74 4 -6 8
-7 8 -3 0 4 9 3 20 -3 11 -6 18 -15 15 -20 -3 -6 1 -7 9 -4 20 7 58 -14 50
-28 -4 -7 -3 -8 5 -4 11 7 159 -68 172 -87 3 -5 8 -8 10 -7 6 2 43 -13 49 -19
3 -3 23 -15 45 -26 l40 -20 2 -65 c1 -36 2 -1064 2 -2286 l1 -2221 289 -168
c160 -93 287 -173 284 -178 -3 -6 -1 -7 5 -3 6 4 29 -5 51 -19 23 -14 45 -25
51 -25 5 0 10 -3 10 -8 0 -4 14 -13 30 -20 17 -8 27 -18 24 -24 -4 -7 -2 -8 5
-4 6 4 44 -12 84 -36 39 -24 84 -50 100 -57 15 -8 27 -18 27 -23 0 -4 9 -8 19
-8 11 0 21 -3 23 -7 2 -5 21 -18 43 -30 22 -13 39 -26 38 -30 -1 -5 11 -9 25
-10 15 0 28 -6 30 -12 2 -6 10 -11 18 -11 8 0 14 -5 14 -10 0 -6 3 -9 8 -8 8
3 104 -52 113 -65 3 -4 12 -9 20 -11 15 -2 76 -38 97 -56 6 -6 12 -8 12 -4 0
4 8 1 18 -7 9 -8 29 -21 44 -28 15 -8 25 -19 21 -24 -3 -6 -1 -7 5 -3 7 4 29
-5 49 -19 21 -14 43 -25 50 -25 7 0 13 -4 13 -10 0 -5 6 -10 13 -10 16 -1 119
-65 113 -71 -3 -3 4 -5 15 -6 10 -1 32 -10 47 -21 15 -10 57 -36 95 -56 39
-22 64 -42 60 -48 -3 -7 -1 -8 6 -4 6 4 17 4 24 -1 20 -15 69 -34 63 -25 -5 8
28 29 48 30 5 0 12 4 15 9 13 18 132 84 141 78 6 -4 9 -1 8 7 -2 7 5 12 14 12
10 -1 16 2 13 6 -2 4 8 13 23 21 15 7 35 19 44 27 9 8 22 11 29 6 7 -4 10 -3
6 2 -7 12 200 137 213 129 6 -4 9 -1 8 7 -2 7 3 12 10 10 6 -1 12 3 12 8 0 6
12 16 28 22 15 7 38 20 51 30 13 10 27 16 31 13 4 -3 11 2 14 11 3 8 10 12 16
9 5 -3 10 -1 10 5 0 6 4 9 9 6 5 -4 11 -3 13 2 7 17 69 53 79 46 7 -4 9 -3 6
3 -6 10 13 23 29 22 4 0 10 4 13 9 13 19 92 62 103 56 7 -4 8 -3 4 4 -4 7 -1
12 8 12 9 0 16 3 16 8 0 4 13 15 29 24 22 12 31 13 35 5 3 -7 5 -6 5 3 1 15
69 62 110 75 11 3 21 10 21 14 0 8 38 28 54 29 5 0 12 4 15 10 8 12 228 142
241 142 6 0 10 4 10 8 0 5 18 17 40 28 22 10 40 22 40 27 0 4 5 7 11 7 5 0 26
11 46 25 26 17 40 21 49 14 8 -7 11 -5 10 6 0 9 16 26 39 39 128 74 200 123
200 136 0 8 4 18 10 22 7 5 7 8 -1 8 -12 0 -13 58 -1 77 4 6 3 14 -2 17 -11 7
-9 25 3 45 6 9 5 12 -1 8 -6 -4 -9 13 -8 46 1 29 -3 58 -9 66 -8 11 -8 13 0 8
15 -8 14 125 -1 135 -7 5 -6 8 1 8 7 0 10 45 9 133 0 72 3 138 8 145 6 7 6 12
0 12 -11 0 -11 159 0 177 4 6 3 14 -2 17 -11 7 -9 25 3 45 6 9 5 12 -1 8 -12
-8 -25 17 -15 28 10 10 10 245 0 245 -5 0 -6 6 -1 13 12 18 11 110 -1 126 -7
10 -7 13 -1 9 7 -4 10 82 10 268 0 179 3 274 10 274 5 0 3 5 -5 10 -8 5 -10
10 -5 10 6 0 3 5 -5 10 -9 6 -10 10 -3 10 6 0 10 9 8 20 -2 11 1 22 6 26 6 3
6 11 1 17 -10 15 -10 27 2 46 6 9 5 12 -1 8 -6 -4 -9 13 -8 46 1 29 -3 58 -9
66 -7 10 -7 13 -1 9 8 -5 11 52 10 178 0 119 3 184 10 184 5 0 3 5 -5 10 -8 5
-10 10 -5 10 6 0 3 5 -5 10 -9 6 -10 10 -3 10 6 0 10 9 8 20 -2 11 1 22 6 26
6 3 5 12 -3 21 -14 17 -13 19 5 42 8 10 8 13 1 8 -8 -4 -10 10 -9 46 1 29 -3
58 -9 66 -8 11 -8 13 0 8 15 -8 14 125 -1 135 -7 5 -6 8 1 8 7 0 10 45 9 133
0 72 3 138 8 144 6 8 6 13 0 13 -11 0 -11 159 0 177 4 6 3 14 -2 17 -11 7 -9
25 3 45 6 9 5 12 -1 8 -12 -8 -25 17 -15 28 10 10 10 245 0 245 -5 0 -6 6 -1
13 11 18 10 127 -2 127 -6 0 -6 3 0 8 7 4 11 99 10 275 0 171 4 267 10 267 6
0 3 5 -5 10 -8 5 -10 10 -5 10 6 0 3 5 -5 10 -11 7 -11 10 -2 10 7 0 11 4 8 8
-3 5 11 14 30 21 18 7 34 17 34 22 0 5 3 8 8 7 4 -2 35 14 68 35 34 20 66 37
72 37 5 0 15 7 22 15 7 9 22 13 34 10 12 -3 15 -2 8 1 -9 4 1 15 30 31 23 14
47 25 53 26 5 1 12 5 15 8 13 15 129 77 134 72 3 -4 6 -1 6 6 0 7 5 9 10 6 6
-3 10 -2 10 4 0 5 12 16 28 23 15 8 52 28 83 46 44 24 59 28 68 19 10 -9 11
-8 6 5 -7 17 26 43 39 31 3 -3 6 -2 6 3 0 5 17 18 37 29 21 11 44 26 52 33 7
7 20 11 28 8 8 -3 11 -2 8 3 -3 5 5 13 17 16 13 4 31 14 41 23 9 8 17 12 17 8
0 -4 7 0 16 9 9 9 23 14 31 11 8 -3 11 -2 8 4 -3 5 10 16 30 26 19 9 38 20 40
25 3 4 13 5 22 2 10 -4 14 -2 10 4 -8 13 20 26 35 16 6 -3 8 -2 5 4 -3 5 11
18 31 28 20 11 40 24 43 29 4 5 14 6 23 3 9 -4 15 -3 13 1 -1 4 1 7 4 7 3 0
13 8 23 18 10 9 23 17 31 17 7 0 15 4 17 8 4 11 231 138 241 134 4 -1 7 1 7 6
0 4 17 16 38 27 20 10 49 27 64 37 20 14 28 15 31 6 3 -8 6 -6 6 5 1 14 14 23
24 15 1 -2 9 3 17 10 19 17 78 52 160 94 36 18 67 36 70 39 3 3 21 14 40 25
19 10 38 24 42 29 4 6 8 7 8 2 0 -4 10 -1 23 8 13 8 27 13 30 10 4 -3 5 -2 2
2 -8 10 75 54 88 46 7 -3 9 -2 4 2 -10 11 70 58 85 49 6 -4 8 -3 5 3 -4 6 8
18 26 27 35 18 56 31 100 59 15 11 34 16 42 13 9 -3 15 0 15 8 0 19 25 27 39
13 9 -9 11 -8 6 4 -7 18 36 45 54 34 6 -3 10 -2 9 3 -2 6 1 10 5 10 5 1 14 7
20 15 7 8 46 32 87 55 41 22 95 51 119 65 25 14 49 23 54 20 6 -3 7 -2 4 4 -6
9 60 49 76 45 4 -1 7 3 7 9 0 8 5 7 15 -1 13 -11 14 -10 10 2 -4 9 9 22 37 37
24 12 66 35 94 49 27 15 62 35 77 45 15 10 33 15 39 11 6 -4 8 -3 5 4 -4 6 11
20 35 32 24 12 61 33 83 46 22 13 46 22 53 19 7 -3 10 0 7 5 -3 6 6 15 22 21
15 5 30 14 33 18 3 4 19 14 35 23 65 33 142 75 167 92 15 10 33 14 40 10 7 -4
10 -3 5 1 -7 8 87 74 105 75 4 0 37 18 73 40 36 22 69 40 74 40 25 0 37 38 35
115 0 45 4 86 10 94 8 11 8 13 -1 8 -16 -10 -15 112 1 132 8 11 8 13 0 8 -14
-8 -14 150 0 172 6 9 5 12 -2 7 -15 -9 -13 114 2 133 8 11 8 13 0 8 -14 -8
-14 150 0 172 6 9 5 12 -2 7 -15 -9 -13 114 2 133 7 9 7 12 1 9 -8 -5 -12 205
-13 670 -2 372 -4 677 -5 679 -3 2 -339 -203 -906 -552 -107 -66 -210 -129
-230 -141 -20 -12 -155 -94 -301 -184 -146 -90 -427 -262 -625 -383 -198 -120
-376 -229 -395 -242 -19 -12 -134 -83 -255 -157 -121 -74 -600 -368 -1065
-653 -465 -284 -861 -527 -880 -540 -19 -12 -298 -183 -620 -380 -322 -196
-601 -367 -620 -379 -19 -13 -54 -34 -76 -49 l-41 -26 -629 386 c-346 213
-670 411 -721 442 -51 31 -158 97 -238 146 -80 50 -158 97 -173 106 -40 24
-303 185 -577 354 -132 81 -252 155 -267 164 -46 27 -408 249 -913 559 -264
163 -529 325 -590 362 -60 37 -180 110 -265 162 -85 53 -216 133 -290 178 -74
46 -155 95 -180 110 -25 15 -252 154 -505 310 -253 155 -473 290 -490 300 -16
9 -55 33 -85 52 -30 19 -65 40 -78 47 l-22 12 2 -1226z"/>
<path d="M12390 11066 c0 -2 8 -10 18 -17 15 -13 16 -12 3 4 -13 16 -21 21
-21 13z"/>
<path d="M12186 11048 c3 -5 10 -6 15 -3 13 9 11 12 -6 12 -8 0 -12 -4 -9 -9z"/>
<path d="M12055 10990 c3 -5 8 -10 11 -10 2 0 4 5 4 10 0 6 -5 10 -11 10 -5 0
-7 -4 -4 -10z"/>
<path d="M12156 10937 c3 -10 9 -15 12 -12 3 3 0 11 -7 18 -10 9 -11 8 -5 -6z"/>
<path d="M12055 10670 c3 -5 8 -10 11 -10 2 0 4 5 4 10 0 6 -5 10 -11 10 -5 0
-7 -4 -4 -10z"/>
<path d="M12055 10350 c3 -5 8 -10 11 -10 2 0 4 5 4 10 0 6 -5 10 -11 10 -5 0
-7 -4 -4 -10z"/>
<path d="M12055 10030 c3 -5 8 -10 11 -10 2 0 4 5 4 10 0 6 -5 10 -11 10 -5 0
-7 -4 -4 -10z"/>
<path d="M12136 9732 c-3 -5 1 -9 9 -9 8 0 12 4 9 9 -3 4 -7 8 -9 8 -2 0 -6
-4 -9 -8z"/>
<path d="M12035 9610 c3 -5 8 -10 11 -10 2 0 4 5 4 10 0 6 -5 10 -11 10 -5 0
-7 -4 -4 -10z"/>
<path d="M12275 9499 c-4 -6 -5 -12 -2 -15 2 -3 7 2 10 11 7 17 1 20 -8 4z"/>
<path d="M11636 9452 c-3 -5 1 -9 9 -9 8 0 12 4 9 9 -3 4 -7 8 -9 8 -2 0 -6
-4 -9 -8z"/>
<path d="M11955 9450 c-3 -5 -1 -10 4 -10 6 0 11 5 11 10 0 6 -2 10 -4 10 -3
0 -8 -4 -11 -10z"/>
<path d="M12186 9452 c-3 -5 1 -9 9 -9 8 0 12 4 9 9 -3 4 -7 8 -9 8 -2 0 -6
-4 -9 -8z"/>
<path d="M12426 9448 c3 -5 10 -6 15 -3 13 9 11 12 -6 12 -8 0 -12 -4 -9 -9z"/>
<path d="M11926 9412 c-3 -5 1 -9 9 -9 8 0 12 4 9 9 -3 4 -7 8 -9 8 -2 0 -6
-4 -9 -8z"/>
<path d="M12115 9381 c-3 -5 -2 -12 3 -15 5 -3 9 1 9 9 0 17 -3 19 -12 6z"/>
<path d="M11393 9295 c0 -8 4 -12 9 -9 5 3 6 10 3 15 -9 13 -12 11 -12 -6z"/>
<path d="M11475 9301 c-3 -5 -2 -12 3 -15 5 -3 9 1 9 9 0 17 -3 19 -12 6z"/>
<path d="M11716 9292 c-3 -5 1 -9 9 -9 8 0 12 4 9 9 -3 4 -7 8 -9 8 -2 0 -6
-4 -9 -8z"/>
<path d="M11873 9285 c0 -8 4 -12 9 -9 5 3 6 10 3 15 -9 13 -12 11 -12 -6z"/>
<path d="M12065 9290 c-3 -6 1 -7 9 -4 18 7 21 14 7 14 -6 0 -13 -4 -16 -10z"/>
<path d="M11315 9221 c-3 -5 -2 -12 3 -15 5 -3 9 1 9 9 0 17 -3 19 -12 6z"/>
<path d="M11475 9210 c-3 -5 -1 -10 4 -10 6 0 11 5 11 10 0 6 -2 10 -4 10 -3
0 -8 -4 -11 -10z"/>
<path d="M11555 9130 c3 -5 8 -10 11 -10 2 0 4 5 4 10 0 6 -5 10 -11 10 -5 0
-7 -4 -4 -10z"/>
<path d="M916 9097 c3 -10 9 -15 12 -12 3 3 0 11 -7 18 -10 9 -11 8 -5 -6z"/>
<path d="M11195 9101 c-3 -5 -2 -12 3 -15 5 -3 9 1 9 9 0 17 -3 19 -12 6z"/>
<path d="M11073 9055 c0 -8 4 -12 9 -9 5 3 6 10 3 15 -9 13 -12 11 -12 -6z"/>
<path d="M11146 9052 c-3 -5 1 -9 9 -9 8 0 12 4 9 9 -3 4 -7 8 -9 8 -2 0 -6
-4 -9 -8z"/>
<path d="M1110 9010 c0 -5 5 -10 11 -10 5 0 7 5 4 10 -3 6 -8 10 -11 10 -2 0
-4 -4 -4 -10z"/>
<path d="M0 6865 c0 -1169 4 -2125 8 -2125 7 0 338 -179 512 -278 25 -14 68
-37 95 -52 96 -52 130 -72 137 -84 4 -6 8 -8 8 -3 0 7 51 -19 168 -86 23 -13
39 -27 35 -32 -5 -4 -3 -5 4 -1 12 7 63 -12 63 -24 0 -8 39 -23 53 -21 4 1 7
-3 7 -8 0 -5 8 -11 18 -14 39 -13 121 -65 114 -72 -4 -5 -2 -5 5 -1 7 4 29 -4
50 -16 21 -13 50 -30 66 -37 15 -8 27 -18 27 -23 0 -5 4 -7 9 -3 5 3 16 -2 24
-10 9 -8 22 -15 29 -15 7 0 24 -9 38 -20 14 -11 31 -20 38 -20 7 0 10 -5 6
-12 -4 -7 -3 -8 4 -4 16 10 54 -12 46 -26 -4 -6 -3 -8 3 -5 12 7 68 -17 96
-41 9 -8 17 -11 17 -7 0 4 8 1 17 -7 10 -8 71 -43 135 -76 l117 -62 0 1423 c0
783 1 1427 2 1433 1 5 1 14 0 19 -3 14 -3 128 -1 140 1 6 2 15 1 20 -3 14 -3
288 -1 300 1 6 2 15 1 20 -6 34 -5 495 1 495 4 0 5 7 2 15 -3 8 -7 97 -8 197
l-1 182 -395 219 c-217 120 -429 237 -470 259 -41 23 -140 77 -220 121 -80 44
-167 92 -195 107 -27 15 -151 84 -275 152 -307 170 -377 208 -384 208 -3 0 -6
-956 -6 -2125z"/>
<path d="M11395 8979 c-4 -6 -5 -12 -2 -15 2 -3 7 2 10 11 7 17 1 20 -8 4z"/>
<path d="M11990 8972 c-19 -9 -41 -23 -49 -30 -7 -7 -20 -11 -28 -8 -8 3 -12
2 -9 -3 3 -4 -16 -19 -42 -32 -26 -14 -77 -42 -114 -63 -37 -21 -73 -34 -79
-30 -7 4 -9 3 -6 -3 6 -9 -217 -141 -247 -146 -5 -1 -17 -8 -27 -16 -10 -8
-57 -35 -106 -61 -48 -26 -108 -58 -133 -72 -174 -98 -216 -121 -227 -121 -7
0 -13 -3 -13 -7 0 -9 -60 -42 -60 -33 0 4 -4 3 -8 -2 -14 -20 -63 -46 -74 -39
-6 4 -8 3 -5 -2 3 -6 -33 -30 -81 -54 -48 -25 -93 -51 -100 -57 -7 -7 -18 -13
-24 -13 -5 0 -23 -9 -39 -21 -16 -11 -34 -17 -40 -13 -7 4 -9 3 -6 -3 7 -11
-51 -40 -68 -35 -5 2 -7 0 -2 -4 8 -8 -88 -65 -115 -67 -9 -1 -15 -4 -13 -7 2
-4 -38 -28 -88 -55 l-92 -48 0 -2119 c0 -1165 4 -2118 8 -2118 5 0 34 14 65
31 32 17 136 74 232 127 96 52 189 103 205 112 17 10 66 36 110 60 44 24 94
51 113 62 18 10 38 15 44 12 6 -4 8 -3 5 3 -3 5 15 20 41 33 26 13 49 26 52
29 9 11 84 46 92 44 4 -2 8 1 8 6 0 5 12 14 28 20 33 14 64 32 86 50 9 7 16
10 16 6 0 -5 8 -1 18 7 27 24 190 107 196 101 3 -4 6 -1 6 5 0 14 60 43 73 35
6 -3 7 -1 3 5 -4 7 -3 12 2 12 6 0 39 17 73 38 35 21 107 61 159 88 52 27 97
52 98 57 2 4 12 7 23 7 10 0 19 5 19 10 0 6 4 10 9 10 19 0 152 82 159 98 4
10 7 26 7 37 -1 11 4 26 9 34 8 11 8 13 -1 8 -16 -10 -15 112 1 132 8 11 8 13
0 8 -14 -8 -14 150 0 172 6 9 5 12 -2 7 -15 -9 -13 114 2 133 8 11 8 13 0 8
-14 -8 -14 150 0 172 6 9 5 12 -2 7 -15 -9 -13 114 2 133 8 11 8 13 0 8 -14
-8 -14 150 0 172 6 9 5 12 -1 8 -15 -9 -14 353 1 372 8 11 8 13 -1 7 -9 -5
-13 0 -13 16 0 13 6 30 13 37 6 8 7 11 1 8 -13 -8 -14 391 0 412 6 10 6 12 -2
7 -16 -10 -16 36 1 53 6 8 7 11 1 8 -13 -8 -14 391 0 412 7 10 6 12 -3 6 -16
-9 -13 52 3 74 8 11 8 13 0 8 -14 -8 -14 150 0 172 6 9 5 12 -2 7 -15 -9 -13
114 2 133 8 11 8 13 0 8 -14 -8 -14 150 0 172 6 9 5 12 -1 8 -6 -4 -10 223
-11 631 0 350 -5 638 -9 639 -4 1 -24 -6 -43 -15z"/>
<path d="M11313 8965 c0 -8 4 -12 9 -9 5 3 6 10 3 15 -9 13 -12 11 -12 -6z"/>
<path d="M10750 8889 c0 -5 5 -7 10 -4 6 3 10 8 10 11 0 2 -4 4 -10 4 -5 0
-10 -5 -10 -11z"/>
<path d="M11030 8856 c0 -2 7 -7 16 -10 8 -3 12 -2 9 4 -6 10 -25 14 -25 6z"/>
<path d="M1316 8808 c3 -5 10 -6 15 -3 13 9 11 12 -6 12 -8 0 -12 -4 -9 -9z"/>
<path d="M10910 8810 c0 -5 5 -10 11 -10 5 0 7 5 4 10 -3 6 -8 10 -11 10 -2 0
-4 -4 -4 -10z"/>
<path d="M11146 8812 c-3 -5 1 -9 9 -9 8 0 12 4 9 9 -3 4 -7 8 -9 8 -2 0 -6
-4 -9 -8z"/>
<path d="M10516 8728 c3 -5 10 -6 15 -3 13 9 11 12 -6 12 -8 0 -12 -4 -9 -9z"/>
<path d="M10950 8736 c0 -2 7 -7 16 -10 8 -3 12 -2 9 4 -6 10 -25 14 -25 6z"/>
<path d="M1355 8710 c3 -5 8 -10 11 -10 2 0 4 5 4 10 0 6 -5 10 -11 10 -5 0
-7 -4 -4 -10z"/>
<path d="M10675 8650 c-3 -5 -1 -10 4 -10 6 0 11 5 11 10 0 6 -2 10 -4 10 -3
0 -8 -4 -11 -10z"/>
<path d="M10399 8603 c-13 -16 -12 -17 4 -4 9 7 17 15 17 17 0 8 -8 3 -21 -13z"/>
<path d="M10276 8568 c3 -5 10 -6 15 -3 13 9 11 12 -6 12 -8 0 -12 -4 -9 -9z"/>
<path d="M10666 8568 c3 -5 10 -6 15 -3 13 9 11 12 -6 12 -8 0 -12 -4 -9 -9z"/>
<path d="M11020 8576 c0 -2 8 -10 18 -17 15 -13 16 -12 3 4 -13 16 -21 21 -21
13z"/>
<path d="M10110 8490 c0 -5 5 -10 11 -10 5 0 7 5 4 10 -3 6 -8 10 -11 10 -2 0
-4 -4 -4 -10z"/>
<path d="M10276 8492 c-3 -5 1 -9 9 -9 8 0 12 4 9 9 -3 4 -7 8 -9 8 -2 0 -6
-4 -9 -8z"/>
<path d="M10516 8488 c3 -5 10 -6 15 -3 13 9 11 12 -6 12 -8 0 -12 -4 -9 -9z"/>
<path d="M2159 8403 c-13 -16 -12 -17 4 -4 9 7 17 15 17 17 0 8 -8 3 -21 -13z"/>
<path d="M9955 8341 c-3 -5 -2 -12 3 -15 5 -3 9 1 9 9 0 17 -3 19 -12 6z"/>
<path d="M10673 8335 c0 -8 4 -12 9 -9 5 3 6 10 3 15 -9 13 -12 11 -12 -6z"/>
<path d="M10186 8328 c3 -5 10 -6 15 -3 13 9 11 12 -6 12 -8 0 -12 -4 -9 -9z"/>
<path d="M9505 8290 c-3 -6 1 -7 9 -4 18 7 21 14 7 14 -6 0 -13 -4 -16 -10z"/>
<path d="M10240 8290 c-9 -6 -10 -10 -3 -10 6 0 15 5 18 10 8 12 4 12 -15 0z"/>
<path d="M9875 8250 c-3 -5 -1 -10 4 -10 6 0 11 5 11 10 0 6 -2 10 -4 10 -3 0
-8 -4 -11 -10z"/>
<path d="M9950 8250 c0 -5 5 -10 11 -10 5 0 7 5 4 10 -3 6 -8 10 -11 10 -2 0
-4 -4 -4 -10z"/>
<path d="M9633 8175 c0 -8 4 -12 9 -9 5 3 6 10 3 15 -9 13 -12 11 -12 -6z"/>
<path d="M9715 8181 c-3 -5 -2 -12 3 -15 5 -3 9 1 9 9 0 17 -3 19 -12 6z"/>
<path d="M9475 8170 c-3 -5 -1 -10 4 -10 6 0 11 5 11 10 0 6 -2 10 -4 10 -3 0
-8 -4 -11 -10z"/>
<path d="M10065 8170 c-3 -6 1 -7 9 -4 18 7 21 14 7 14 -6 0 -13 -4 -16 -10z"/>
<path d="M2715 8131 c-3 -5 -2 -12 3 -15 5 -3 9 1 9 9 0 17 -3 19 -12 6z"/>
<path d="M9996 8132 c-3 -5 1 -9 9 -9 8 0 12 4 9 9 -3 4 -7 8 -9 8 -2 0 -6 -4
-9 -8z"/>
<path d="M9393 8095 c0 -8 4 -12 9 -9 5 3 6 10 3 15 -9 13 -12 11 -12 -6z"/>
<path d="M9710 8090 c0 -5 5 -10 11 -10 5 0 7 5 4 10 -3 6 -8 10 -11 10 -2 0
-4 -4 -4 -10z"/>
<path d="M9793 8085 c0 -8 4 -12 9 -9 5 3 6 10 3 15 -9 13 -12 11 -12 -6z"/>
<path d="M10306 8092 c-3 -5 1 -9 9 -9 8 0 12 4 9 9 -3 4 -7 8 -9 8 -2 0 -6
-4 -9 -8z"/>
<path d="M9230 8009 c0 -5 5 -7 10 -4 6 3 10 8 10 11 0 2 -4 4 -10 4 -5 0 -10
-5 -10 -11z"/>
<path d="M9867 7969 c7 -7 15 -10 18 -7 3 3 -2 9 -12 12 -14 6 -15 5 -6 -5z"/>
<path d="M12156 7963 c-6 -14 -5 -15 5 -6 7 7 10 15 7 18 -3 3 -9 -2 -12 -12z"/>
<path d="M8913 7935 c0 -8 4 -12 9 -9 5 3 6 10 3 15 -9 13 -12 11 -12 -6z"/>
<path d="M9316 7928 c3 -5 10 -6 15 -3 13 9 11 12 -6 12 -8 0 -12 -4 -9 -9z"/>
<path d="M9555 7931 c-3 -5 -2 -12 3 -15 5 -3 9 1 9 9 0 17 -3 19 -12 6z"/>
<path d="M3075 7850 c3 -5 8 -10 11 -10 2 0 4 5 4 10 0 6 -5 10 -11 10 -5 0
-7 -4 -4 -10z"/>
<path d="M8836 7852 c-3 -5 1 -9 9 -9 8 0 12 4 9 9 -3 4 -7 8 -9 8 -2 0 -6 -4
-9 -8z"/>
<path d="M9076 7848 c3 -5 10 -6 15 -3 13 9 11 12 -6 12 -8 0 -12 -4 -9 -9z"/>
<path d="M9436 7852 c-3 -5 1 -9 9 -9 8 0 12 4 9 9 -3 4 -7 8 -9 8 -2 0 -6 -4
-9 -8z"/>
<path d="M12055 7830 c3 -5 8 -10 11 -10 2 0 4 5 4 10 0 6 -5 10 -11 10 -5 0
-7 -4 -4 -10z"/>
<path d="M12055 7790 c3 -5 8 -10 11 -10 2 0 4 5 4 10 0 6 -5 10 -11 10 -5 0
-7 -4 -4 -10z"/>
<path d="M8626 7772 c-3 -5 1 -9 9 -9 8 0 12 4 9 9 -3 4 -7 8 -9 8 -2 0 -6 -4
-9 -8z"/>
<path d="M8746 7772 c-3 -5 1 -9 9 -9 8 0 12 4 9 9 -3 4 -7 8 -9 8 -2 0 -6 -4
-9 -8z"/>
<path d="M8986 7768 c3 -5 10 -6 15 -3 13 9 11 12 -6 12 -8 0 -12 -4 -9 -9z"/>
<path d="M8756 7608 c3 -5 10 -6 15 -3 13 9 11 12 -6 12 -8 0 -12 -4 -9 -9z"/>
<path d="M8916 7608 c3 -5 10 -6 15 -3 13 9 11 12 -6 12 -8 0 -12 -4 -9 -9z"/>
<path d="M8955 7591 c-3 -5 -2 -12 3 -15 5 -3 9 1 9 9 0 17 -3 19 -12 6z"/>
<path d="M3725 7570 c-3 -6 1 -7 9 -4 18 7 21 14 7 14 -6 0 -13 -4 -16 -10z"/>
<path d="M8153 7535 c0 -8 4 -12 9 -9 5 3 6 10 3 15 -9 13 -12 11 -12 -6z"/>
<path d="M8753 7535 c0 -8 4 -12 9 -9 5 3 6 10 3 15 -9 13 -12 11 -12 -6z"/>
<path d="M8266 7528 c3 -5 10 -6 15 -3 13 9 11 12 -6 12 -8 0 -12 -4 -9 -9z"/>
<path d="M8355 7530 c3 -5 8 -10 11 -10 2 0 4 5 4 10 0 6 -5 10 -11 10 -5 0
-7 -4 -4 -10z"/>
<path d="M9156 7497 c3 -10 9 -15 12 -12 3 3 0 11 -7 18 -10 9 -11 8 -5 -6z"/>
<path d="M12055 7470 c3 -5 8 -10 11 -10 2 0 4 5 4 10 0 6 -5 10 -11 10 -5 0
-7 -4 -4 -10z"/>
<path d="M8435 7461 c-3 -5 -2 -12 3 -15 5 -3 9 1 9 9 0 17 -3 19 -12 6z"/>
<path d="M8356 7452 c-3 -5 1 -9 9 -9 8 0 12 4 9 9 -3 4 -7 8 -9 8 -2 0 -6 -4
-9 -8z"/>
<path d="M8596 7452 c-3 -5 1 -9 9 -9 8 0 12 4 9 9 -3 4 -7 8 -9 8 -2 0 -6 -4
-9 -8z"/>
<path d="M2035 7381 c-3 -5 -2 -12 3 -15 5 -3 9 1 9 9 0 17 -3 19 -12 6z"/>
<path d="M8270 7369 c0 -5 5 -7 10 -4 6 3 10 8 10 11 0 2 -4 4 -10 4 -5 0 -10
-5 -10 -11z"/>
<path d="M8556 7328 c3 -5 10 -6 15 -3 13 9 11 12 -6 12 -8 0 -12 -4 -9 -9z"/>
<path d="M2390 7309 c0 -5 5 -7 10 -4 6 3 10 8 10 11 0 2 -4 4 -10 4 -5 0 -10
-5 -10 -11z"/>
<path d="M8790 7306 c0 -2 8 -10 18 -17 15 -13 16 -12 3 4 -13 16 -21 21 -21
13z"/>
<path d="M2310 7289 c0 -5 5 -7 10 -4 6 3 10 8 10 11 0 2 -4 4 -10 4 -5 0 -10
-5 -10 -11z"/>
<path d="M8515 7291 c-3 -5 -2 -12 3 -15 5 -3 9 1 9 9 0 17 -3 19 -12 6z"/>
<path d="M2110 7210 c0 -5 5 -10 11 -10 5 0 7 5 4 10 -3 6 -8 10 -11 10 -2 0
-4 -4 -4 -10z"/>
<path d="M8030 7210 c0 -5 5 -10 11 -10 5 0 7 5 4 10 -3 6 -8 10 -11 10 -2 0
-4 -4 -4 -10z"/>
<path d="M8115 7210 c3 -5 8 -10 11 -10 2 0 4 5 4 10 0 6 -5 10 -11 10 -5 0
-7 -4 -4 -10z"/>
<path d="M8356 7212 c-3 -5 1 -9 9 -9 8 0 12 4 9 9 -3 4 -7 8 -9 8 -2 0 -6 -4
-9 -8z"/>
<path d="M1986 7128 c3 -5 10 -6 15 -3 13 9 11 12 -6 12 -8 0 -12 -4 -9 -9z"/>
<path d="M8190 7130 c0 -5 5 -10 11 -10 5 0 7 5 4 10 -3 6 -8 10 -11 10 -2 0
-4 -4 -4 -10z"/>
<path d="M8035 7119 c-4 -6 -5 -12 -2 -15 2 -3 7 2 10 11 7 17 1 20 -8 4z"/>
<path d="M8270 7091 c0 -6 4 -13 10 -16 6 -3 7 1 4 9 -7 18 -14 21 -14 7z"/>
<path d="M2115 7061 c-3 -5 -2 -12 3 -15 5 -3 9 1 9 9 0 17 -3 19 -12 6z"/>
<path d="M8110 7050 c0 -5 5 -10 11 -10 5 0 7 5 4 10 -3 6 -8 10 -11 10 -2 0
-4 -4 -4 -10z"/>
<path d="M1986 6968 c3 -5 10 -6 15 -3 13 9 11 12 -6 12 -8 0 -12 -4 -9 -9z"/>
<path d="M2316 6963 c-6 -14 -5 -15 5 -6 7 7 10 15 7 18 -3 3 -9 -2 -12 -12z"/>
<path d="M2075 6961 c-3 -5 -2 -12 3 -15 5 -3 9 1 9 9 0 17 -3 19 -12 6z"/>
<path d="M8035 6959 c-4 -6 -5 -12 -2 -15 2 -3 7 2 10 11 7 17 1 20 -8 4z"/>
<path d="M8110 6890 c0 -5 5 -10 11 -10 5 0 7 5 4 10 -3 6 -8 10 -11 10 -2 0
-4 -4 -4 -10z"/>
<path d="M12116 6888 c3 -5 10 -6 15 -3 13 9 11 12 -6 12 -8 0 -12 -4 -9 -9z"/>
<path d="M12230 6856 c0 -2 7 -7 16 -10 8 -3 12 -2 9 4 -6 10 -25 14 -25 6z"/>
<path d="M12113 6815 c0 -8 4 -12 9 -9 5 3 6 10 3 15 -9 13 -12 11 -12 -6z"/>
<path d="M1986 6808 c3 -5 10 -6 15 -3 13 9 11 12 -6 12 -8 0 -12 -4 -9 -9z"/>
<path d="M2386 6792 c-3 -5 1 -9 9 -9 8 0 12 4 9 9 -3 4 -7 8 -9 8 -2 0 -6 -4
-9 -8z"/>
<path d="M2115 6741 c-3 -5 -2 -12 3 -15 5 -3 9 1 9 9 0 17 -3 19 -12 6z"/>
<path d="M8176 6692 c-3 -5 1 -9 9 -9 8 0 12 4 9 9 -3 4 -7 8 -9 8 -2 0 -6 -4
-9 -8z"/>
<path d="M12067 6689 c7 -7 15 -10 18 -7 3 3 -2 9 -12 12 -14 6 -15 5 -6 -5z"/>
<path d="M1986 6648 c3 -5 10 -6 15 -3 13 9 11 12 -6 12 -8 0 -12 -4 -9 -9z"/>
<path d="M12400 6650 c-9 -6 -10 -10 -3 -10 6 0 15 5 18 10 8 12 4 12 -15 0z"/>
<path d="M8195 6579 c-4 -6 -5 -12 -2 -15 2 -3 7 2 10 11 7 17 1 20 -8 4z"/>
<path d="M12195 6570 c3 -5 8 -10 11 -10 2 0 4 5 4 10 0 6 -5 10 -11 10 -5 0
-7 -4 -4 -10z"/>
<path d="M2035 6490 c3 -5 8 -10 11 -10 2 0 4 5 4 10 0 6 -5 10 -11 10 -5 0
-7 -4 -4 -10z"/>
<path d="M2155 6490 c-3 -5 -1 -10 4 -10 6 0 11 5 11 10 0 6 -2 10 -4 10 -3 0
-8 -4 -11 -10z"/>
<path d="M8193 6485 c0 -8 4 -12 9 -9 5 3 6 10 3 15 -9 13 -12 11 -12 -6z"/>
<path d="M12116 6408 c3 -5 10 -6 15 -3 13 9 11 12 -6 12 -8 0 -12 -4 -9 -9z"/>
<path d="M12113 6335 c0 -8 4 -12 9 -9 5 3 6 10 3 15 -9 13 -12 11 -12 -6z"/>
<path d="M2033 6325 c0 -8 4 -12 9 -9 5 3 6 10 3 15 -9 13 -12 11 -12 -6z"/>
<path d="M12235 6250 c-3 -5 -1 -10 4 -10 6 0 11 5 11 10 0 6 -2 10 -4 10 -3
0 -8 -4 -11 -10z"/>
<path d="M12067 6209 c7 -7 15 -10 18 -7 3 3 -2 9 -12 12 -14 6 -15 5 -6 -5z"/>
<path d="M8186 6168 c3 -5 10 -6 15 -3 13 9 11 12 -6 12 -8 0 -12 -4 -9 -9z"/>
<path d="M12186 6168 c3 -5 10 -6 15 -3 13 9 11 12 -6 12 -8 0 -12 -4 -9 -9z"/>
<path d="M12270 6131 c0 -6 4 -13 10 -16 6 -3 7 1 4 9 -7 18 -14 21 -14 7z"/>
<path d="M2030 6089 c0 -5 5 -7 10 -4 6 3 10 8 10 11 0 2 -4 4 -10 4 -5 0 -10
-5 -10 -11z"/>
<path d="M2115 6090 c3 -5 8 -10 11 -10 2 0 4 5 4 10 0 6 -5 10 -11 10 -5 0
-7 -4 -4 -10z"/>
<path d="M2035 6010 c-3 -5 -1 -10 4 -10 6 0 11 5 11 10 0 6 -2 10 -4 10 -3 0
-8 -4 -11 -10z"/>
<path d="M8115 5931 c-3 -5 -2 -12 3 -15 5 -3 9 1 9 9 0 17 -3 19 -12 6z"/>
<path d="M12116 5932 c-3 -5 1 -9 9 -9 8 0 12 4 9 9 -3 4 -7 8 -9 8 -2 0 -6
-4 -9 -8z"/>
<path d="M2144 5892 c4 -3 14 -7 22 -8 9 -1 13 0 10 4 -4 3 -14 7 -22 8 -9 1
-13 0 -10 -4z"/>
<path d="M12055 5870 c3 -5 8 -10 11 -10 2 0 4 5 4 10 0 6 -5 10 -11 10 -5 0
-7 -4 -4 -10z"/>
<path d="M8390 5849 c0 -5 5 -7 10 -4 6 3 10 8 10 11 0 2 -4 4 -10 4 -5 0 -10
-5 -10 -11z"/>
<path d="M8160 5810 c-9 -6 -10 -10 -3 -10 6 0 15 5 18 10 8 12 4 12 -15 0z"/>
<path d="M2036 5772 c-3 -5 1 -9 9 -9 8 0 12 4 9 9 -3 4 -7 8 -9 8 -2 0 -6 -4
-9 -8z"/>
<path d="M8146 5732 c-3 -5 1 -9 9 -9 8 0 12 4 9 9 -3 4 -7 8 -9 8 -2 0 -6 -4
-9 -8z"/>
<path d="M2116 5692 c-3 -5 1 -9 9 -9 8 0 12 4 9 9 -3 4 -7 8 -9 8 -2 0 -6 -4
-9 -8z"/>
<path d="M8390 5689 c0 -5 5 -7 10 -4 6 3 10 8 10 11 0 2 -4 4 -10 4 -5 0 -10
-5 -10 -11z"/>
<path d="M8150 5656 c0 -2 7 -7 16 -10 8 -3 12 -2 9 4 -6 10 -25 14 -25 6z"/>
<path d="M2030 5609 c0 -5 5 -7 10 -4 6 3 10 8 10 11 0 2 -4 4 -10 4 -5 0 -10
-5 -10 -11z"/>
<path d="M12055 5550 c3 -5 8 -10 11 -10 2 0 4 5 4 10 0 6 -5 10 -11 10 -5 0
-7 -4 -4 -10z"/>
<path d="M2035 5530 c-3 -5 -1 -10 4 -10 6 0 11 5 11 10 0 6 -2 10 -4 10 -3 0
-8 -4 -11 -10z"/>
<path d="M2155 5530 c-3 -5 -1 -10 4 -10 6 0 11 5 11 10 0 6 -2 10 -4 10 -3 0
-8 -4 -11 -10z"/>
<path d="M2030 5370 c0 -5 5 -10 11 -10 5 0 7 5 4 10 -3 6 -8 10 -11 10 -2 0
-4 -4 -4 -10z"/>
<path d="M2149 5333 c-13 -16 -12 -17 4 -4 16 13 21 21 13 21 -2 0 -10 -8 -17
-17z"/>
<path d="M8193 5285 c0 -8 4 -12 9 -9 5 3 6 10 3 15 -9 13 -12 11 -12 -6z"/>
<path d="M2187 5249 c7 -7 15 -10 18 -7 3 3 -2 9 -12 12 -14 6 -15 5 -6 -5z"/>
<path d="M12055 5230 c3 -5 8 -10 11 -10 2 0 4 5 4 10 0 6 -5 10 -11 10 -5 0
-7 -4 -4 -10z"/>
<path d="M8390 5209 c0 -5 5 -7 10 -4 6 3 10 8 10 11 0 2 -4 4 -10 4 -5 0 -10
-5 -10 -11z"/>
<path d="M8160 5170 c-9 -6 -10 -10 -3 -10 6 0 15 5 18 10 8 12 4 12 -15 0z"/>
<path d="M2030 5129 c0 -5 5 -7 10 -4 6 3 10 8 10 11 0 2 -4 4 -10 4 -5 0 -10
-5 -10 -11z"/>
<path d="M2115 5130 c3 -5 8 -10 11 -10 2 0 4 5 4 10 0 6 -5 10 -11 10 -5 0
-7 -4 -4 -10z"/>
<path d="M2345 5130 c-3 -6 1 -7 9 -4 18 7 21 14 7 14 -6 0 -13 -4 -16 -10z"/>
<path d="M8146 5092 c-3 -5 1 -9 9 -9 8 0 12 4 9 9 -3 4 -7 8 -9 8 -2 0 -6 -4
-9 -8z"/>
<path d="M2035 5050 c-3 -5 -1 -10 4 -10 6 0 11 5 11 10 0 6 -2 10 -4 10 -3 0
-8 -4 -11 -10z"/>
<path d="M8390 5049 c0 -5 5 -7 10 -4 6 3 10 8 10 11 0 2 -4 4 -10 4 -5 0 -10
-5 -10 -11z"/>
<path d="M8150 5016 c0 -2 7 -7 16 -10 8 -3 12 -2 9 4 -6 10 -25 14 -25 6z"/>
<path d="M12055 4910 c3 -5 8 -10 11 -10 2 0 4 5 4 10 0 6 -5 10 -11 10 -5 0
-7 -4 -4 -10z"/>
<path d="M2115 4890 c-3 -5 -1 -10 4 -10 6 0 11 5 11 10 0 6 -2 10 -4 10 -3 0
-8 -4 -11 -10z"/>
<path d="M12070 4751 c0 -6 4 -13 10 -16 6 -3 7 1 4 9 -7 18 -14 21 -14 7z"/>
<path d="M12065 4690 c-3 -6 1 -7 9 -4 18 7 21 14 7 14 -6 0 -13 -4 -16 -10z"/>
<path d="M2030 4649 c0 -5 5 -7 10 -4 6 3 10 8 10 11 0 2 -4 4 -10 4 -5 0 -10
-5 -10 -11z"/>
<path d="M8193 4645 c0 -8 4 -12 9 -9 5 3 6 10 3 15 -9 13 -12 11 -12 -6z"/>
<path d="M8030 4591 c0 -6 4 -13 10 -16 6 -3 7 1 4 9 -7 18 -14 21 -14 7z"/>
<path d="M8155 4521 c-3 -5 -2 -12 3 -15 5 -3 9 1 9 9 0 17 -3 19 -12 6z"/>
<path d="M2030 4490 c0 -5 5 -10 11 -10 5 0 7 5 4 10 -3 6 -8 10 -11 10 -2 0
-4 -4 -4 -10z"/>
<path d="M2115 4490 c3 -5 8 -10 11 -10 2 0 4 5 4 10 0 6 -5 10 -11 10 -5 0
-7 -4 -4 -10z"/>
<path d="M2345 4490 c-3 -6 1 -7 9 -4 18 7 21 14 7 14 -6 0 -13 -4 -16 -10z"/>
<path d="M12030 4489 c0 -5 5 -7 10 -4 6 3 10 8 10 11 0 2 -4 4 -10 4 -5 0
-10 -5 -10 -11z"/>
<path d="M12426 4492 c-3 -5 1 -9 9 -9 8 0 12 4 9 9 -3 4 -7 8 -9 8 -2 0 -6
-4 -9 -8z"/>
<path d="M8030 4431 c0 -6 4 -13 10 -16 6 -3 7 1 4 9 -7 18 -14 21 -14 7z"/>
<path d="M11715 4421 c-3 -5 -2 -12 3 -15 5 -3 9 1 9 9 0 17 -3 19 -12 6z"/>
<path d="M11953 4415 c0 -8 4 -12 9 -9 5 3 6 10 3 15 -9 13 -12 11 -12 -6z"/>
<path d="M2035 4410 c-3 -5 -1 -10 4 -10 6 0 11 5 11 10 0 6 -2 10 -4 10 -3 0
-8 -4 -11 -10z"/>
<path d="M8195 4411 c-3 -5 -2 -12 3 -15 5 -3 9 1 9 9 0 17 -3 19 -12 6z"/>
<path d="M11635 4411 c-3 -5 -2 -12 3 -15 5 -3 9 1 9 9 0 17 -3 19 -12 6z"/>
<path d="M12030 4410 c0 -5 5 -10 11 -10 5 0 7 5 4 10 -3 6 -8 10 -11 10 -2 0
-4 -4 -4 -10z"/>
<path d="M515 4379 c-4 -6 -5 -12 -2 -15 2 -3 7 2 10 11 7 17 1 20 -8 4z"/>
<path d="M2115 4250 c-3 -5 -1 -10 4 -10 6 0 11 5 11 10 0 6 -2 10 -4 10 -3 0
-8 -4 -11 -10z"/>
<path d="M11946 4252 c-3 -5 1 -9 9 -9 8 0 12 4 9 9 -3 4 -7 8 -9 8 -2 0 -6
-4 -9 -8z"/>
<path d="M11393 4175 c0 -8 4 -12 9 -9 5 3 6 10 3 15 -9 13 -12 11 -12 -6z"/>
<path d="M11550 4170 c0 -5 5 -10 11 -10 5 0 7 5 4 10 -3 6 -8 10 -11 10 -2 0
-4 -4 -4 -10z"/>
<path d="M11793 4165 c0 -8 4 -12 9 -9 5 3 6 10 3 15 -9 13 -12 11 -12 -6z"/>
<path d="M8176 4132 c-3 -5 1 -9 9 -9 8 0 12 4 9 9 -3 4 -7 8 -9 8 -2 0 -6 -4
-9 -8z"/>
<path d="M12070 4130 c0 -5 5 -10 11 -10 5 0 7 5 4 10 -3 6 -8 10 -11 10 -2 0
-4 -4 -4 -10z"/>
<path d="M11313 4095 c0 -8 4 -12 9 -9 5 3 6 10 3 15 -9 13 -12 11 -12 -6z"/>
<path d="M11393 4085 c0 -8 4 -12 9 -9 5 3 6 10 3 15 -9 13 -12 11 -12 -6z"/>
<path d="M11475 4091 c-3 -5 -2 -12 3 -15 5 -3 9 1 9 9 0 17 -3 19 -12 6z"/>
<path d="M11555 4050 c-3 -5 -1 -10 4 -10 6 0 11 5 11 10 0 6 -2 10 -4 10 -3
0 -8 -4 -11 -10z"/>
<path d="M8195 4019 c-4 -6 -5 -12 -2 -15 2 -3 7 2 10 11 7 17 1 20 -8 4z"/>
<path d="M12109 4013 c-13 -16 -12 -17 4 -4 16 13 21 21 13 21 -2 0 -10 -8
-17 -17z"/>
<path d="M2030 4009 c0 -5 5 -7 10 -4 6 3 10 8 10 11 0 2 -4 4 -10 4 -5 0 -10
-5 -10 -11z"/>
<path d="M10906 4008 c3 -5 10 -6 15 -3 13 9 11 12 -6 12 -8 0 -12 -4 -9 -9z"/>
<path d="M10995 4010 c-3 -5 -1 -10 4 -10 6 0 11 5 11 10 0 6 -2 10 -4 10 -3
0 -8 -4 -11 -10z"/>
<path d="M11313 3935 c0 -8 4 -12 9 -9 5 3 6 10 3 15 -9 13 -12 11 -12 -6z"/>
<path d="M8193 3925 c0 -8 4 -12 9 -9 5 3 6 10 3 15 -9 13 -12 11 -12 -6z"/>
<path d="M10995 3930 c-3 -5 -1 -10 4 -10 6 0 11 5 11 10 0 6 -2 10 -4 10 -3
0 -8 -4 -11 -10z"/>
<path d="M2235 3899 c-4 -6 -5 -12 -2 -15 2 -3 7 2 10 11 7 17 1 20 -8 4z"/>
<path d="M2030 3849 c0 -5 5 -7 10 -4 6 3 10 8 10 11 0 2 -4 4 -10 4 -5 0 -10
-5 -10 -11z"/>
<path d="M2116 3852 c-3 -5 1 -9 9 -9 8 0 12 4 9 9 -3 4 -7 8 -9 8 -2 0 -6 -4
-9 -8z"/>
<path d="M11690 3816 c0 -2 7 -7 16 -10 8 -3 12 -2 9 4 -6 10 -25 14 -25 6z"/>
<path d="M1989 3733 c-13 -16 -12 -17 4 -4 9 7 17 15 17 17 0 8 -8 3 -21 -13z"/>
<path d="M11280 3730 c-9 -6 -10 -10 -3 -10 6 0 15 5 18 10 8 12 4 12 -15 0z"/>
<path d="M2379 3668 c-5 -18 -6 -38 -1 -34 7 8 12 36 6 36 -2 0 -4 -1 -5 -2z"/>
<path d="M1630 3626 c0 -2 8 -10 18 -17 15 -13 16 -12 3 4 -13 16 -21 21 -21
13z"/>
<path d="M8186 3608 c3 -5 10 -6 15 -3 13 9 11 12 -6 12 -8 0 -12 -4 -9 -9z"/>
<path d="M1955 3579 c-4 -6 -5 -12 -2 -15 2 -3 7 2 10 11 7 17 1 20 -8 4z"/>
<path d="M10635 3530 c-3 -5 -1 -10 4 -10 6 0 11 5 11 10 0 6 -2 10 -4 10 -3
0 -8 -4 -11 -10z"/>
<path d="M10713 3523 c0 -9 4 -10 14 -2 7 6 13 12 13 14 0 1 -6 2 -13 2 -8 0
-14 -6 -14 -14z"/>
<path d="M8115 3371 c-3 -5 -2 -12 3 -15 5 -3 9 1 9 9 0 17 -3 19 -12 6z"/>
<path d="M8385 3290 c-3 -6 1 -7 9 -4 18 7 21 14 7 14 -6 0 -13 -4 -16 -10z"/>
<path d="M8160 3250 c-9 -6 -10 -10 -3 -10 6 0 15 5 18 10 8 12 4 12 -15 0z"/>
<path d="M8146 3172 c-3 -5 1 -9 9 -9 8 0 12 4 9 9 -3 4 -7 8 -9 8 -2 0 -6 -4
-9 -8z"/>
<path d="M8385 3130 c-3 -6 1 -7 9 -4 18 7 21 14 7 14 -6 0 -13 -4 -16 -10z"/>
<path d="M8150 3096 c0 -2 7 -7 16 -10 8 -3 12 -2 9 4 -6 10 -25 14 -25 6z"/>
<path d="M8115 2890 c3 -5 8 -10 11 -10 2 0 4 5 4 10 0 6 -5 10 -11 10 -5 0
-7 -4 -4 -10z"/>
<path d="M8193 2885 c0 -8 4 -12 9 -9 5 3 6 10 3 15 -9 13 -12 11 -12 -6z"/>
<path d="M8235 2741 c-3 -5 -2 -12 3 -15 5 -3 9 1 9 9 0 17 -3 19 -12 6z"/>
<path d="M7875 2730 c-3 -5 -1 -10 4 -10 6 0 11 5 11 10 0 6 -2 10 -4 10 -3 0
-8 -4 -11 -10z"/>
<path d="M8116 2728 c3 -5 10 -6 15 -3 13 9 11 12 -6 12 -8 0 -12 -4 -9 -9z"/>
<path d="M8195 2731 c-3 -5 -2 -12 3 -15 5 -3 9 1 9 9 0 17 -3 19 -12 6z"/>
<path d="M7776 2688 c3 -5 10 -6 15 -3 13 9 11 12 -6 12 -8 0 -12 -4 -9 -9z"/>
<path d="M7873 2655 c0 -8 4 -12 9 -9 5 3 6 10 3 15 -9 13 -12 11 -12 -6z"/>
<path d="M8115 2661 c-3 -5 -2 -12 3 -15 5 -3 9 1 9 9 0 17 -3 19 -12 6z"/>
<path d="M7635 2650 c3 -5 8 -10 11 -10 2 0 4 5 4 10 0 6 -5 10 -11 10 -5 0
-7 -4 -4 -10z"/>
<path d="M7946 2652 c-3 -5 1 -9 9 -9 8 0 12 4 9 9 -3 4 -7 8 -9 8 -2 0 -6 -4
-9 -8z"/>
<path d="M8193 2605 c0 -8 4 -12 9 -9 5 3 6 10 3 15 -9 13 -12 11 -12 -6z"/>
<path d="M8340 2616 c0 -2 8 -10 18 -17 15 -13 16 -12 3 4 -13 16 -21 21 -21
13z"/>
<path d="M7556 2572 c-3 -5 1 -9 9 -9 8 0 12 4 9 9 -3 4 -7 8 -9 8 -2 0 -6 -4
-9 -8z"/>
<path d="M7476 2492 c-3 -5 1 -9 9 -9 8 0 12 4 9 9 -3 4 -7 8 -9 8 -2 0 -6 -4
-9 -8z"/>
<path d="M7546 2492 c-3 -5 1 -9 9 -9 8 0 12 4 9 9 -3 4 -7 8 -9 8 -2 0 -6 -4
-9 -8z"/>
<path d="M7715 2491 c-3 -5 -2 -12 3 -15 5 -3 9 1 9 9 0 17 -3 19 -12 6z"/>
<path d="M8036 2492 c-3 -5 1 -9 9 -9 8 0 12 4 9 9 -3 4 -7 8 -9 8 -2 0 -6 -4
-9 -8z"/>
<path d="M7836 2457 c3 -10 9 -15 12 -12 3 3 0 11 -7 18 -10 9 -11 8 -5 -6z"/>
<path d="M7275 2451 c-3 -5 -2 -12 3 -15 5 -3 9 1 9 9 0 17 -3 19 -12 6z"/>
<path d="M8146 2448 c3 -5 10 -6 15 -3 13 9 11 12 -6 12 -8 0 -12 -4 -9 -9z"/>
<path d="M7706 2412 c-3 -5 1 -9 9 -9 8 0 12 4 9 9 -3 4 -7 8 -9 8 -2 0 -6 -4
-9 -8z"/>
<path d="M7946 2412 c-3 -5 1 -9 9 -9 8 0 12 4 9 9 -3 4 -7 8 -9 8 -2 0 -6 -4
-9 -8z"/>
<path d="M7315 2250 c3 -5 8 -10 11 -10 2 0 4 5 4 10 0 6 -5 10 -11 10 -5 0
-7 -4 -4 -10z"/>
<path d="M7476 2248 c3 -5 10 -6 15 -3 13 9 11 12 -6 12 -8 0 -12 -4 -9 -9z"/>
<path d="M7076 2168 c3 -5 10 -6 15 -3 13 9 11 12 -6 12 -8 0 -12 -4 -9 -9z"/>
<path d="M7466 2168 c3 -5 10 -6 15 -3 13 9 11 12 -6 12 -8 0 -12 -4 -9 -9z"/>
<path d="M6746 2092 c-3 -5 1 -9 9 -9 8 0 12 4 9 9 -3 4 -7 8 -9 8 -2 0 -6 -4
-9 -8z"/>
<path d="M6990 2090 c0 -5 5 -10 11 -10 5 0 7 5 4 10 -3 6 -8 10 -11 10 -2 0
-4 -4 -4 -10z"/>
<path d="M7076 2092 c-3 -5 1 -9 9 -9 8 0 12 4 9 9 -3 4 -7 8 -9 8 -2 0 -6 -4
-9 -8z"/>
<path d="M7315 2090 c3 -5 8 -10 11 -10 2 0 4 5 4 10 0 6 -5 10 -11 10 -5 0
-7 -4 -4 -10z"/>
<path d="M6590 2009 c0 -5 5 -7 10 -4 6 3 10 8 10 11 0 2 -4 4 -10 4 -5 0 -10
-5 -10 -11z"/>
<path d="M6906 2008 c3 -5 10 -6 15 -3 13 9 11 12 -6 12 -8 0 -12 -4 -9 -9z"/>
<path d="M6915 1941 c-3 -5 -2 -12 3 -15 5 -3 9 1 9 9 0 17 -3 19 -12 6z"/>
<path d="M6515 1930 c3 -5 8 -10 11 -10 2 0 4 5 4 10 0 6 -5 10 -11 10 -5 0
-7 -4 -4 -10z"/>
<path d="M7027 1889 c7 -7 15 -10 18 -7 3 3 -2 9 -12 12 -14 6 -15 5 -6 -5z"/>
<path d="M6835 1850 c3 -5 8 -10 11 -10 2 0 4 5 4 10 0 6 -5 10 -11 10 -5 0
-7 -4 -4 -10z"/>
<path d="M6275 1770 c3 -5 8 -10 11 -10 2 0 4 5 4 10 0 6 -5 10 -11 10 -5 0
-7 -4 -4 -10z"/>
<path d="M6426 1768 c3 -5 10 -6 15 -3 13 9 11 12 -6 12 -8 0 -12 -4 -9 -9z"/>
<path d="M6670 1770 c0 -5 5 -10 11 -10 5 0 7 5 4 10 -3 6 -8 10 -11 10 -2 0
-4 -4 -4 -10z"/>
<path d="M6435 1701 c-3 -5 -2 -12 3 -15 5 -3 9 1 9 9 0 17 -3 19 -12 6z"/>
<path d="M6753 1695 c0 -8 4 -12 9 -9 5 3 6 10 3 15 -9 13 -12 11 -12 -6z"/>
<path d="M6266 1692 c-3 -5 1 -9 9 -9 8 0 12 4 9 9 -3 4 -7 8 -9 8 -2 0 -6 -4
-9 -8z"/>
<path d="M6476 1497 c3 -10 9 -15 12 -12 3 3 0 11 -7 18 -10 9 -11 8 -5 -6z"/>
<path d="M6079 1483 c-13 -16 -12 -17 4 -4 16 13 21 21 13 21 -2 0 -10 -8 -17
-17z"/>
<path d="M6510 1410 c0 -5 5 -10 11 -10 5 0 7 5 4 10 -3 6 -8 10 -11 10 -2 0
-4 -4 -4 -10z"/>
</g>
</svg>
